<?xml version="1.0" encoding="UTF-8"?>
<svg width="42px" height="22px" viewBox="0 0 42 22" version="1.1" xmlns="http://www.w3.org/2000/svg" xmlns:xlink="http://www.w3.org/1999/xlink">
    <!-- Generator: Sketch 50.2 (55047) - http://www.bohemiancoding.com/sketch -->
    <title>AccessGranted</title>
    <desc>Created with Sketch.</desc>
    <defs></defs>
    <g id="Excise-DB---V0.2" stroke="none" stroke-width="1" fill="none" fill-rule="evenodd">
        <g id="01-Excise---User-Management" transform="translate(-35.000000, -183.000000)">
            <g id="Customer-Table" transform="translate(19.000000, 135.000000)">
                <g id="Table">
                    <g id="Team-Member-Row-Copy-4" transform="translate(0.000000, 39.000000)">
                        <g id="AccessGranted" transform="translate(16.000000, 9.000000)">
                            <rect id="Rectangle-1" fill="#006FE1" x="0" y="0" width="42" height="22" rx="11"></rect>
                            <circle id="Oval-1" fill="#FFFFFF" cx="32" cy="11" r="8"></circle>
                            <path d="M6.10334029,10.8695198 C5.96555324,10.7317328 5.96555324,10.5020877 6.10334029,10.3643006 L6.6085595,9.85908142 C6.74634656,9.72129436 6.97599165,9.72129436 7.11377871,9.85908142 L9.96137787,12.7296451 C10.0532359,12.8215031 10.2139875,12.8215031 10.3058455,12.7296451 L15.8862213,7.10334029 C16.0240084,6.96555324 16.2536534,6.96555324 16.3914405,7.10334029 L16.8966597,7.6085595 C17.0344468,7.74634656 17.0344468,7.97599165 16.8966597,8.11377871 L10.3977035,14.6816284 C10.2599165,14.84238 10.0302714,14.84238 9.89248434,14.6816284 L6.10334029,10.8695198 Z" id="Shape" fill="#FFFFFF"></path>
                        </g>
                    </g>
                </g>
            </g>
        </g>
    </g>
</svg>