<?xml version="1.0" encoding="UTF-8"?>
<svg width="18px" height="15px" viewBox="0 0 18 15" version="1.1" xmlns="http://www.w3.org/2000/svg" xmlns:xlink="http://www.w3.org/1999/xlink">
    <!-- Generator: Sketch 50.2 (55047) - http://www.bohemiancoding.com/sketch -->
    <title>Back</title>
    <desc>Created with Sketch.</desc>
    <defs></defs>
    <g id="Excise-DB---V0.2" stroke="none" stroke-width="1" fill="none" fill-rule="evenodd">
        <g id="03-Excise---In-Progress-Orders-V2---Order-Info" transform="translate(-20.000000, -93.000000)" fill="#687189" fill-rule="nonzero">
            <g id="Info-Header" transform="translate(0.000000, 62.000000)">
                <g id="Order-#" transform="translate(20.000000, 25.000000)">
                    <path d="M17.7067272,12.7858598 L11.2083357,6.28732195 C11.0228345,6.10182081 10.7755972,6 10.5119749,6 C10.24806,6 10.000969,6.10196711 9.81546789,6.28732195 L9.22546309,6.87747304 C9.04010825,7.06268159 8.93799484,7.31006521 8.93799484,7.57383378 C8.93799484,7.83745606 9.04010825,8.09317844 9.22546309,8.27838699 L13.0165329,12.0777955 L0.972125438,12.0777955 C0.4290811,12.0777955 0,12.5029267 0,13.0461173 L0,13.8804336 C0,14.4236242 0.4290811,14.8916196 0.972125438,14.8916196 L13.0595434,14.8916196 L9.22560938,18.7122408 C9.04025454,18.8977419 8.93814114,19.138396 8.93814114,19.4021646 C8.93814114,19.6656405 9.04025454,19.9098057 9.22560938,20.0951605 L9.81561418,20.6834098 C10.0011153,20.8689109 10.2482063,20.9700003 10.5121212,20.9700003 C10.7757435,20.9700003 11.0229808,20.8675943 11.2084819,20.6820931 L17.7068735,14.1837016 C17.8928135,13.9976153 17.9950732,13.7492076 17.9943418,13.4851464 C17.9949269,13.2202075 17.8928135,12.9716535 17.7067272,12.7858598 Z" id="Back" transform="translate(8.997173, 13.485000) scale(-1, 1) translate(-8.997173, -13.485000) "></path>
                </g>
            </g>
        </g>
    </g>
</svg>