<?xml version="1.0" encoding="UTF-8"?>
<svg width="30px" height="30px" viewBox="0 0 30 30" version="1.1" xmlns="http://www.w3.org/2000/svg" xmlns:xlink="http://www.w3.org/1999/xlink">
    <!-- Generator: Sketch 50.2 (55047) - http://www.bohemiancoding.com/sketch -->
    <title>Cancelled</title>
    <desc>Created with Sketch.</desc>
    <defs></defs>
    <g id="Excise-DB---V0.2" stroke="none" stroke-width="1" fill="none" fill-rule="evenodd">
        <g id="04-Excise---Order-History---Order-Information-V0.2----OTTP-Cancelled" transform="translate(-57.000000, -124.000000)" fill="#E24B4B" fill-rule="nonzero">
            <g id="Info-Header" transform="translate(0.000000, 62.000000)">
                <g id="Success" transform="translate(57.000000, 62.000000)">
                    <path d="M14.99985,0 C6.71577761,0 0,6.71583284 0,14.99985 C0,23.2835672 6.71567761,30 14.99965,30 C23.2836224,30 30,23.2835672 30,14.99985 C30,6.71583284 23.2837224,0 14.99985,0 Z M21.9981798,22.0093596 C21.2574554,22.7494606 20.0575042,22.7494606 19.3173982,22.0093596 L15.0959248,17.7879143 L10.6822515,22.2015582 C9.94189813,22.9416593 8.74182324,22.9416593 8.00184096,22.2015582 C7.26111659,21.4605915 7.26111659,20.2608956 8.00184096,19.5201762 L12.4151433,15.1069033 L8.30597207,10.9980068 C7.5658661,10.25704 7.5658661,9.05734416 8.30597207,8.31687209 C9.04632539,7.5765237 10.2466476,7.5765237 10.9871247,8.31687209 L15.0960485,12.4257686 L19.0131434,8.50845239 C19.7534968,7.76835136 20.9541901,7.768104 21.693925,8.50845239 C22.4346493,9.24941918 22.4346493,10.4498571 21.693925,11.1895871 L17.7772011,15.1066559 L21.9984271,19.3281012 C22.7385331,20.0680785 22.7389041,21.2687638 21.9981798,22.0093596 Z" id="Cancelled"></path>
                </g>
            </g>
        </g>
    </g>
</svg>