<svg width="38px" height="46px" viewBox="0 0 38 46" version="1.1" xmlns="http://www.w3.org/2000/svg" xmlnsXlink="http://www.w3.org/1999/xlink">
              <g id="Page-1" stroke="none" stroke-width="1" fill="none" fill-rule="evenodd">
                  <g id="Group-30" transform="translate(1.000000, 1.000000)">
                      <g id="Group-8-Copy-4" stroke="#EAEAEA" fill-rule="nonzero" fill="#CD3132">
                          <path d="M18.1458647,0.00783534691 C18.0965147,0 18.0488037,0.00320536919 18.0001821,0.00320536919 C17.9515605,0.00320536919 17.9034853,0 17.8541353,0 C7.96701907,0.161336916 0,8.04138092 0,17.7454581 C0,30.8228301 13.7076152,33.703198 18.0001821,45 C21.8034212,33.703198 36,30.8231863 36,17.7454581 C35.9994537,8.04138092 28.0335272,0.161336916 18.1458647,0.00783534691 Z" id="Shape-Copy-4"></path>
                      </g>
                      <g id="Customer" transform="translate(6.000000, 3.000000)">
                          <path d="M11.8267266,11.9180317 C10.121694,11.9180317 8.73943285,10.1455376 8.73943285,7.959039 C8.73943285,5.77249415 9.1933371,4 11.8267266,4 C14.460116,4 14.9139326,5.77249415 14.9139326,7.959039 C14.9139326,10.1455376 13.5316715,11.9180317 11.8267266,11.9180317 Z M17.6554812,17.6265706 C17.6591177,17.8702087 17.6610455,17.9123493 17.6620093,17.8906083 C17.6618779,17.9551837 17.6617903,18.0501041 17.6617903,18.1866099 C17.6617903,18.1866099 16.8033154,20.0135954 11.8311361,20.0135954 C6.8588692,20.0135954 6.00048194,18.1866099 6.00048194,18.1866099 C6.00048194,17.9741493 6.00021907,17.8523071 6,17.7864364 C6.00096389,17.8215921 6.00346124,17.8056796 6.00885026,17.5028318 C6.07456998,13.7940458 6.57439041,12.7248041 10.1405619,12.0452817 C10.1405619,12.0452817 10.648181,12.7280884 11.8311361,12.7280884 C13.0140912,12.7280884 13.5216227,12.0452817 13.5216227,12.0452817 C17.1271384,12.7322978 17.598305,13.8176371 17.6554812,17.6265706 Z" id="Shape" fill="#FFFFFF" fill-rule="nonzero"></path>
                          <rect id="Rectangle-Copy" x="0" y="0" width="24" height="24"></rect>
                      </g>
                  </g>
              </g>
          </svg>