<svg width="38px" height="46px" viewBox="0 0 38 46" version="1.1" xmlns="http://www.w3.org/2000/svg" xmlnsXlink="http://www.w3.org/1999/xlink">
              <defs></defs>
              <g id="Page-1" stroke="none" stroke-width="1" fill="none" fill-rule="evenodd">
                  <g id="In-progress_-Order-Details-" transform="translate(-539.000000, -324.000000)" fill-rule="nonzero">
                      <g id="Order-Pins" transform="translate(40.000000, 115.000000)">
                          <g id="Group-17" transform="translate(500.000000, 210.000000)">
                              <g id="Group-7-Copy" stroke="#EAEAEA" fill="#7D34D9">
                                  <path d="M18.0264121,0.00782608696 C17.9773869,0 17.9299899,0.00320158103 17.8816884,0.00320158103 C17.8333869,0.00320158103 17.7856281,0 17.736603,0 C7.91457286,0.161146245 0,8.03187747 0,17.7244862 C0,30.7864032 13.6173792,33.6633669 17.8816884,44.9468182 C21.6598912,33.6633669 35.7630151,30.7867589 35.7630151,17.7244862 C35.7624724,8.03187747 27.8489849,0.161146245 18.0264121,0.00782608696 Z" id="Shape-Copy-3"></path>
                              </g>
                              <g id="noun_638258_cc" transform="translate(8.000000, 7.000000)" fill="#FFFFFF">
                                  <g id="Group" transform="translate(9.500000, 9.000000) scale(-1, 1) translate(-9.500000, -9.000000) ">
                                      <path d="M12.8448899,8.34970499 C12.9806007,8.19855367 13.0493285,8.00336734 13.0390876,7.80025775 C13.0380256,7.78037343 13.035674,7.76087004 13.0331706,7.74136664 C13.0604797,7.74738527 13.0873336,7.75584182 13.1130496,7.76795525 C13.2061279,7.81176171 13.2769798,7.89145137 13.3104333,7.98904453 L13.529285,8.63006631 L14.3238266,8.63006631 C14.4439864,8.11718794 14.901413,7.7348909 15.4488077,7.7348909 C16.0876878,7.7348909 16.0876878,10.0585377 15.4488077,10.0585377 C14.901413,10.0585377 14.4439864,9.67624066 14.3238266,9.16336229 L13.7114212,9.16336229 L13.8720894,9.63403409 C14.4546066,9.88049302 15.4442562,10.4633855 15.8849939,11.6869951 C15.9336192,11.8219951 15.9802722,11.9496814 16.0254838,12.0718824 C16.7445462,12.0622069 17.7670425,12.2487081 18.5021111,13.2106979 C18.9578688,13.8072275 18.8852722,13.9741492 18.6016374,13.9877863 C18.1247911,13.2356866 17.2921685,12.7611294 16.3760258,12.7611294 C16.346441,12.7611294 16.3170079,12.7619674 16.287499,12.7629578 C16.0467242,12.7711096 15.8083769,12.8127829 15.5769327,12.8866825 C15.5607748,12.8918631 15.5445411,12.8965865 15.5284591,12.9020719 C15.363998,12.958068 15.2074261,13.0292249 15.0600331,13.1139428 C15.0020013,13.1473118 14.9457902,13.1832712 14.890717,13.2207543 C14.7223112,13.3354891 14.5679392,13.4691179 14.4307112,13.6198883 L12.7194959,8.60774406 L11.9984611,8.88162964 C11.8024428,8.95583397 11.583667,8.85656473 11.5094774,8.65977851 C11.4991607,8.63250423 11.4929403,8.60469665 11.4891474,8.57696526 C11.6693112,8.5973067 11.8528129,8.60782024 12.0393488,8.60782024 L12.0435969,8.60782024 L12.0437486,8.60782024 C12.1366753,8.60743932 12.2299053,8.60500139 12.3207079,8.60027792 C12.5230983,8.58991674 12.709255,8.50085631 12.8448899,8.34970499 Z M11.6480243,2.72498729 C11.4342887,3.64278756 10.5137272,4.21278313 9.59189258,3.99810803 C8.67005801,3.78343292 8.09603037,2.86538024 8.30976597,1.94757997 C8.52350157,1.0297797 9.44406308,0.459784134 10.3658977,0.674459236 C11.2877322,0.889134338 11.8617599,1.80718702 11.6480243,2.72498729 Z M7.76586199,10.9501324 C7.1886549,10.8828609 6.61599931,10.6056994 6.42635314,9.62565372 C6.23018314,7.93320082 6.34116408,6.93281374 6.85745682,5.39577853 C7.23932835,4.2802757 8.17807691,3.92708139 8.82568066,4.08920337 C9.4490097,4.24523054 9.73598228,5.09195219 9.56234225,5.83148135 C9.52858523,5.78729397 9.49748326,5.74440174 9.46888462,5.70349032 C9.33673916,5.51470354 9.24563314,5.34770571 9.19230464,5.24089414 C9.16393357,5.1842124 9.14398279,5.13987265 9.13161786,5.11122703 C9.12608019,5.09812319 9.12213555,5.08898097 9.12023909,5.08387657 C9.00956159,4.78865915 8.7244096,4.59019686 8.41035554,4.59019686 C8.31902194,4.59019686 8.22920552,4.60672903 8.14325787,4.63933627 C7.95345998,4.71087412 7.80303264,4.85234992 7.71936075,5.03770837 C7.635613,5.22306682 7.62886159,5.42998566 7.70024441,5.62044851 L7.70350633,5.62860032 L7.70403733,5.6297431 C7.77572359,5.81197796 8.05639992,6.45718991 8.65621284,7.11482004 C8.83190105,7.30673041 9.01972662,7.48043253 9.21718622,7.63729774 C9.13783826,8.16015636 9.08413046,8.70411826 9.09566095,9.23086232 L11.4789823,9.60325529 C11.8107114,9.654985 12.0919946,9.88102631 12.2153405,10.1946805 L13.4922661,13.4452719 C13.6845673,13.9345329 13.4455373,14.487637 12.9582225,14.6805378 C12.8439038,14.7257918 12.7262473,14.7471998 12.6105631,14.7471998 C12.2325604,14.7471998 11.8753428,14.5186444 11.7281774,14.1441182 L10.6506078,11.4010722 L7.77390298,10.9518085 C7.77117208,10.9513514 7.76859289,10.9505895 7.76586199,10.9501324 Z M9.05659384,5.30900366 C9.11652203,5.42907144 9.21164855,5.60079275 9.34440087,5.79087467 C9.39643978,5.86545992 9.45591282,5.94278784 9.51940636,6.02072524 C9.7808905,6.34176942 10.13917,6.67706023 10.6073685,6.91072005 C10.9966742,7.10476361 11.4616107,7.23564968 12.0431418,7.23625916 C12.1098972,7.23625916 12.1788526,7.23443072 12.2500078,7.23085001 C12.5616344,7.21469876 12.8299458,7.43761649 12.8796331,7.73946201 C12.8833502,7.76193663 12.8860811,7.78471599 12.8872948,7.80802864 C12.9046664,8.14423366 12.6474303,8.43084216 12.3126669,8.44821238 C12.2217885,8.45293585 12.131972,8.45522141 12.0432176,8.45537378 C12.0417763,8.45537378 12.0404109,8.45537378 12.0390454,8.45537378 C11.8528887,8.45537378 11.6731041,8.44432693 11.4993883,8.42421406 C10.9579864,8.36174224 10.477954,8.20838155 10.0660425,8.00169127 C9.75396074,7.84543554 9.48193227,7.65992473 9.24426769,7.46359562 C9.06637958,7.3165583 8.90715265,7.16365472 8.76780064,7.01151299 C8.11754185,6.29872482 7.86030578,5.6113063 7.84209975,5.5666618 C7.72413983,5.25171243 7.88268403,4.90019419 8.19643466,4.7817263 C8.51018528,4.66310604 8.86004454,4.82240916 8.97815618,5.13751091 L8.97808032,5.13751091 C8.97845961,5.13834894 8.97883891,5.13926316 8.97929406,5.14032976 C8.98156981,5.14619601 8.9859696,5.15686193 8.99249343,5.1718704 C9.00538937,5.20181116 9.02655388,5.24896977 9.05659384,5.30900366 Z M0.574403269,10.8996216 C0.350848361,10.8996216 0.16954662,10.7176153 0.16954662,10.4930215 L0.16954662,5.74897284 C0.16954662,5.52445524 0.350848361,5.34237275 0.574403269,5.34237275 L5.36554831,5.34237275 C5.58910322,5.34237275 5.77040496,5.52437905 5.77040496,5.74897284 L5.77040496,10.4930215 C5.77040496,10.7175392 5.58910322,10.8996216 5.36554831,10.8996216 L0.574403269,10.8996216 Z M7.28097465,14.683509 C7.42161625,15.1000132 7.43443634,15.5289355 7.34143385,15.9278409 C7.16931099,16.6657702 6.63359848,17.3005448 5.86636592,17.5617836 C4.6842634,17.9643459 3.4011174,17.3282 3.00043297,16.1410831 C2.97646169,16.0703071 2.95658677,15.9991502 2.93989791,15.9278409 C2.67735175,14.8034244 3.30341169,13.6412963 4.4150417,13.2628085 C5.59714422,12.8602462 6.88021436,13.4963922 7.28097465,14.683509 Z M5.42729711,16.2615318 C5.61375722,16.1979934 5.76494315,16.0781542 5.87008299,15.9278409 C6.0282479,15.7017996 6.08134882,15.4061251 5.9862223,15.1243924 C5.82798154,14.6554729 5.32094353,14.4040619 4.85403466,14.5630603 C4.38712578,14.7220587 4.13686869,15.231204 4.29518531,15.7001997 C4.32325295,15.7833939 4.36277521,15.8594267 4.4106419,15.9278409 C4.63252793,16.2450758 5.04330154,16.3922655 5.42729711,16.2615318 Z M13.7658876,15.0136192 C13.7198415,15.3159219 13.7268205,15.6243955 13.7873555,15.9279171 L9.51265495,15.9279171 C9.14292077,15.9279171 8.71818921,15.9279171 8.26099021,15.9279171 C8.08765361,15.9279171 7.9097655,15.9279171 7.72816033,15.9279171 C7.81608029,15.4866528 7.79400548,15.0173523 7.64008865,14.5613842 C7.27672658,13.4845073 6.27236045,12.7612056 5.14085553,12.7612056 C4.85312435,12.7612056 4.56797237,12.8085165 4.29321299,12.9022242 C3.62565847,13.1294083 3.08607718,13.6044227 2.77391958,14.2392735 C2.51342159,14.7692935 2.43824585,15.3578237 2.55210941,15.9279171 C1.75969185,15.9279171 1.24415769,15.9279171 1.24415769,15.9279171 C1.24415769,14.9732411 1.75271287,13.5655683 2.08224206,12.7535109 L2.04878847,12.7535109 C1.88121711,12.7535109 1.7453546,12.6170633 1.7453546,12.4487703 L1.7453546,11.6107337 C1.7453546,11.4424408 1.88121711,11.3059932 2.04878847,11.3059932 L8.23125369,11.3059932 C8.39882505,11.3059932 8.53468757,11.4424408 8.53468757,11.6107337 L8.53468757,12.4487703 C8.53468757,12.5859797 8.44380912,12.7006384 8.31962881,12.7388071 C8.36726793,13.3015106 8.51109559,14.1663643 8.92922747,15.0136192 L13.7658876,15.0136192 Z M18.0900479,13.9332378 C18.2734737,14.1474704 18.4203357,14.3994908 18.5159932,14.683509 C18.9168294,15.8706259 18.2834111,17.1592975 17.1013845,17.5617836 C15.9192819,17.9643459 14.6361359,17.3282 14.2354515,16.1410831 C14.2114802,16.0703071 14.1916053,15.9991502 14.1749165,15.9278409 C14.1031543,15.6202815 14.0979201,15.3099794 14.1507935,15.0136192 C14.2139077,14.6601964 14.3597077,14.3265816 14.574463,14.0414207 C14.7037258,13.8698517 14.858022,13.7159577 15.0340136,13.585605 C15.0829423,13.549417 15.1336158,13.5153623 15.1858823,13.4829836 C15.3290272,13.3940755 15.4839302,13.3194141 15.6501361,13.2628085 C15.695727,13.2472668 15.7415456,13.2338582 15.7873641,13.2213638 C16.0043193,13.1623203 16.2233227,13.1370269 16.4385332,13.1430455 C17.0746064,13.1608728 17.6763917,13.4499954 18.0900479,13.9332378 Z M16.6625432,16.2615318 C17.129528,16.1024573 17.3797851,15.593312 17.2213926,15.1243924 C17.0631518,14.6554729 16.5561138,14.4040619 16.0892049,14.5630603 C15.622296,14.7220587 15.372039,15.231204 15.5303556,15.7001997 C15.6885963,16.1691193 16.1956344,16.4205302 16.6625432,16.2615318 Z" id="Combined-Shape"></path>
                                  </g>
                              </g>
                          </g>
                      </g>
                  </g>
              </g>
          </svg>