<?xml version="1.0" encoding="UTF-8"?>
<svg width="30px" height="30px" viewBox="0 0 30 30" version="1.1" xmlns="http://www.w3.org/2000/svg" xmlns:xlink="http://www.w3.org/1999/xlink">
    <!-- Generator: Sketch 50.2 (55047) - http://www.bohemiancoding.com/sketch -->
    <title>S</title>
    <desc>Created with Sketch.</desc>
    <defs></defs>
    <g id="Excise-DB---V0.2" stroke="none" stroke-width="1" fill="none" fill-rule="evenodd">
        <g id="03-Excise---In-Progress-Orders-V2---Order-Info" transform="translate(-54.000000, -124.000000)" fill-rule="nonzero">
            <g id="Info-Header" transform="translate(0.000000, 62.000000)">
                <g id="Success" transform="translate(54.000000, 62.000000)">
                    <g id="S">
                        <path d="M15,0 C6.72904949,0 0,6.72794519 0,14.9978872 C0,23.2678292 6.72904949,29.9959309 15,29.9959309 C23.2709505,29.9959309 30,23.2678292 30,14.9978872 C30,6.72794519 23.271107,0 15,0 Z" id="Tick" fill="#006FE1"></path>
                        <g transform="translate(8.249998, 6.000004)" fill="#FCFDFE" id="Shape">
                            <path d="M6.88983759,12.7324924 C6.04980307,12.7324924 5.3625021,13.4724438 5.3625021,14.3768288 L5.3625021,17.7066099 C5.3625021,18.6109949 6.04980307,19.3509463 6.88983759,19.3509463 C7.72987211,19.3509463 8.41717308,18.6109949 8.41717308,17.7066099 L8.41717308,14.3768288 C8.41717308,13.4724438 7.72990206,12.7324924 6.88983759,12.7324924 Z"></path>
                            <path d="M12.8713033,2.13749242 L9.66389118,2.13749242 C9.28899885,0.897746817 8.16435453,0 6.83137135,0 C5.49838817,0 4.37374385,0.897746817 3.99885152,2.13749242 L0.833094067,2.13749242 C0.37489233,2.13749242 0,2.52224106 0,2.99248939 C0,3.46273772 0.37489233,3.84748636 0.833094067,3.84748636 L4.04050623,3.84748636 C4.24877974,4.57423378 4.70698148,5.17273166 5.33180203,5.55748029 C3.08244805,6.24147787 1.41625991,8.37897029 1.41625991,10.9012113 L1.41625991,15.3899454 C1.41625991,16.1594427 2.04108046,16.8006904 2.79086513,16.8006904 L3.91554212,16.8006904 L3.91554212,14.3639491 C3.91554212,12.6966714 5.24849262,11.3287098 6.87302605,11.3287098 C8.49755949,11.3287098 9.83050999,12.696705 9.83050999,14.3639491 L9.83050999,16.8006904 L10.955187,16.8006904 C11.7049716,16.8006904 12.3297922,16.1594427 12.3297922,15.3899454 L12.3297922,10.9439612 C12.3297922,8.42168661 10.6636041,6.24147787 8.41421741,5.60023014 C9.03903796,5.21548151 9.4972397,4.61698363 9.70551321,3.89023621 L12.9129254,3.89023621 C13.3711271,3.89023621 13.7460194,3.50548757 13.7460194,3.03523924 C13.7043974,2.52224106 13.3295051,2.13749242 12.8713033,2.13749242 Z M6.83137135,4.74523317 C5.91496788,4.74523317 5.16518322,3.9757359 5.16518322,3.03523924 C5.16518322,2.09474257 5.91496788,1.3252453 6.83137135,1.3252453 C7.74777483,1.3252453 8.49755949,2.09474257 8.49755949,3.03523924 C8.53921419,3.9757359 7.78942953,4.74523317 6.83137135,4.74523317 Z"></path>
                        </g>
                    </g>
                </g>
            </g>
        </g>
    </g>
</svg>