<?xml version="1.0" encoding="UTF-8"?>
<svg width="14px" height="14px" viewBox="0 0 14 14" version="1.1" xmlns="http://www.w3.org/2000/svg" xmlns:xlink="http://www.w3.org/1999/xlink">
    <!-- Generator: Sketch 50.2 (55047) - http://www.bohemiancoding.com/sketch -->
    <title>InfoIcon</title>
    <desc>Created with Sketch.</desc>
    <defs></defs>
    <g id="Excise-DB---V0.2" stroke="none" stroke-width="1" fill="none" fill-rule="evenodd">
        <g id="05-Excise---User-Management---Add-Squad-Member---Set-Role" transform="translate(-456.000000, -469.000000)" fill="#FFFFFF" fill-rule="nonzero">
            <g id="Access-Modal" transform="translate(426.000000, 234.000000)">
                <g id="Role" transform="translate(20.000000, 173.000000)">
                    <g id="Info-Box" transform="translate(0.000000, 52.000000)">
                        <g id="InfoIcon" transform="translate(10.000000, 10.000000)">
                            <path d="M7,0 C3.1402,0 0,3.14024242 0,7.00004242 C0,10.8598424 3.1402,14 7,14 C10.8598,14 14,10.8598424 14,7.00004242 C14,3.14024242 10.8598,0 7,0 Z M7,12.7272727 C3.84193939,12.7272727 1.27272727,10.1580606 1.27272727,7.00004242 C1.27272727,3.84202424 3.84193939,1.27272727 7,1.27272727 C10.1580606,1.27272727 12.7272727,3.84202424 12.7272727,7.00004242 C12.7272727,10.1580606 10.1580182,12.7272727 7,12.7272727 Z" id="Shape"></path>
                            <path d="M6.99991515,2.96969697 C6.53214545,2.96969697 6.1516,3.35049697 6.1516,3.81856364 C6.1516,4.28620606 6.53214545,4.66666667 6.99991515,4.66666667 C7.46768485,4.66666667 7.8482303,4.28620606 7.8482303,3.81856364 C7.8482303,3.35049697 7.46768485,2.96969697 6.99991515,2.96969697 Z" id="Shape"></path>
                            <path d="M7,5.93939394 C6.64855758,5.93939394 6.36363636,6.22431515 6.36363636,6.57575758 L6.36363636,10.3939394 C6.36363636,10.7453818 6.64855758,11.030303 7,11.030303 C7.35144242,11.030303 7.63636364,10.7453818 7.63636364,10.3939394 L7.63636364,6.57575758 C7.63636364,6.22431515 7.35144242,5.93939394 7,5.93939394 Z" id="Shape"></path>
                        </g>
                    </g>
                </g>
            </g>
        </g>
    </g>
</svg>