<?xml version="1.0" encoding="UTF-8"?>
<svg width="15px" height="16px" viewBox="0 0 15 16" version="1.1" xmlns="http://www.w3.org/2000/svg" xmlns:xlink="http://www.w3.org/1999/xlink">
    <!-- Generator: Sketch 50.2 (55047) - http://www.bohemiancoding.com/sketch -->
    <title>Logout</title>
    <desc>Created with Sketch.</desc>
    <defs></defs>
    <g id="Excise-DB---V0.2" stroke="none" stroke-width="1" fill="none" fill-rule="evenodd">
        <g id="01-Excise---In-Progress-Orders-V2---Filter-Expanded" transform="translate(-1354.000000, -24.000000)" fill="#FFFFFF" fill-rule="nonzero">
            <g id="Header">
                <g id="Logout" transform="translate(1354.000000, 23.000000)">
                    <g transform="translate(0.000000, 1.500000)" id="Shape">
                        <path d="M11.4291723,3.70674209 C11.1480815,3.43111734 10.6921249,3.43107029 10.4109381,3.70669503 C10.1297993,3.98236684 10.1297513,4.42928645 10.4109381,4.70495826 L12.5418714,6.794191 L3.7200072,6.794191 C3.32237122,6.794191 3,7.11023946 3,7.50007647 C3,7.88991349 3.32237122,8.20596194 3.7200072,8.20596194 L12.5417754,8.20596194 L10.4109381,10.2950064 C10.1297513,10.5706783 10.1297513,11.0175979 10.4109381,11.2932697 C10.5515315,11.4311056 10.7358054,11.5 10.9200792,11.5 C11.104353,11.5 11.2886269,11.4311056 11.4291723,11.2932697 L14.7891099,7.99923161 C15.0702967,7.72360687 15.0702967,7.27664019 14.7891099,7.00096839 L11.4291723,3.70674209 Z"></path>
                        <path d="M7.25,15 C7.6642,15 8,14.6947273 8,14.3181818 C8,13.9416364 7.6642,13.6363636 7.25,13.6363636 L1.5,13.6363636 L1.5,1.36363636 L7.25,1.36363636 C7.6642,1.36363636 8,1.05836364 8,0.681818182 C8,0.305272727 7.6642,0 7.25,0 L0.75,0 C0.3358,0 0,0.305272727 0,0.681818182 L0,14.3181818 C0,14.6947273 0.3358,15 0.75,15 L7.25,15 Z"></path>
                    </g>
                </g>
            </g>
        </g>
    </g>
</svg>