<svg width="38px" height="46px" viewBox="0 0 38 46" version="1.1" xmlns="http://www.w3.org/2000/svg" xmlnsXlink="http://www.w3.org/1999/xlink">
        <defs>
            <linearGradient x1="50%" y1="0%" x2="50%" y2="100%" id="linearGradient-1">
                <stop stop-color="#FA5C5C" offset="0%"></stop>
                <stop stop-color="#D31935" offset="100%"></stop>
            </linearGradient>
        </defs>
        <g id="Page-1" stroke="none" stroke-width="1" fill="none" fill-rule="evenodd">
            <g id="New-Orders" transform="translate(-332.000000, -640.000000)">
                <g id="Store1-Copy" transform="translate(333.000000, 641.000000)">
                    <path d="M18.0264121,0.00782608696 C17.9773869,0 17.9299899,0.00320158103 17.8816884,0.00320158103 C17.8333869,0.00320158103 17.7856281,0 17.736603,0 C7.91457286,0.161146245 0,8.03187747 0,17.7244862 C0,30.7864032 13.6173792,33.6633669 17.8816884,44.9468182 C21.6598912,33.6633669 35.7630151,30.7867589 35.7630151,17.7244862 C35.7624724,8.03187747 27.8489849,0.161146245 18.0264121,0.00782608696 Z" id="Shape-Copy-13" stroke="#EAEAEA" fill="url(#linearGradient-1)" fill-rule="nonzero"></path>
                    <circle id="Oval-2" fill="#FFFFFF" cx="17.5" cy="17.5" r="13.5"></circle>
                    <path d="M26.9953715,16.910236 L26.9953715,15.9068689 L23.891961,9.20730337 L10.9159562,9.20730337 L8,15.9068689 L8,16.9624947 C8,17.5477922 8.46863581,18.0181205 9.05182704,18.0181205 C9.20803898,18.0181205 9.35383678,17.9867652 9.48922046,17.9240548 L9.48922046,25.4075009 L17.4143727,25.4075009 L17.4143727,20.3906655 L22.361084,20.3906655 L22.361084,25.4075009 L25.3186967,25.4075009 L25.3186967,17.8090857 C25.4957369,17.9449583 25.7144336,18.0181205 25.9435445,18.0181205 C26.5267357,18.0181205 26.9953715,17.5477922 26.9953715,16.9624947 C27.0057856,16.9415912 26.9953715,16.9206877 26.9953715,16.910236 Z M10.1036541,16.9624947 L10.1036541,16.2726798 L10.1036541,15.9068689 L12.2385505,10.7750644 L13.8943971,10.7750644 L12.2385505,15.9068689 L12.2177223,15.9068689 L12.2177223,16.2831316 L12.2177223,16.9729464 C12.2177223,17.5582439 11.7490865,18.0285722 11.1658952,18.0285722 C10.582704,18.0285722 10.1036541,17.5477922 10.1036541,16.9624947 Z M14.1235079,22.3973997 L11.1658952,22.3973997 L11.1658952,19.4291054 L14.1235079,19.4291054 L14.1235079,22.3973997 Z M16.466687,15.9068689 L16.4458587,15.9068689 L16.4458587,16.2831316 L16.4458587,16.9729464 C16.4458587,17.5582439 15.9772229,18.0285722 15.3940317,18.0285722 C14.8108404,18.0285722 14.3422046,17.5582439 14.3422046,16.9729464 L14.3422046,16.2831316 L14.3422046,15.9068689 L15.1649208,10.7750644 L16.872838,10.7750644 L16.466687,15.9068689 Z M20.663581,16.2726798 L20.663581,16.9624947 C20.663581,17.5477922 20.1949452,18.0181205 19.611754,18.0181205 C19.0285627,18.0181205 18.5599269,17.5477922 18.5599269,16.9624947 L18.5599269,16.2726798 L18.5599269,15.9068689 L18.16419,10.7750644 L19.8616931,10.7750644 L20.6739951,15.9068689 L20.6739951,16.2726798 L20.663581,16.2726798 Z M24.8917174,16.9624947 C24.8917174,17.5477922 24.4230816,18.0181205 23.8398904,18.0181205 C23.2566991,18.0181205 22.7880633,17.5477922 22.7880633,16.9624947 L22.7880633,16.2726798 L22.7880633,15.9068689 L21.1530451,10.7750644 L22.7880633,10.7750644 L24.8917174,15.9068689 L24.8917174,16.9624947 Z" id="Shape" fill="#000000" fill-rule="nonzero"></path>
                </g>
            </g>
        </g>
        </svg>