<?xml version="1.0" encoding="UTF-8"?>
<svg width="30px" height="30px" viewBox="0 0 30 30" version="1.1" xmlns="http://www.w3.org/2000/svg" xmlns:xlink="http://www.w3.org/1999/xlink">
    <!-- Generator: Sketch 50.2 (55047) - http://www.bohemiancoding.com/sketch -->
    <title>SuccessTick</title>
    <desc>Created with Sketch.</desc>
    <defs></defs>
    <g id="Excise-DB---V0.2" stroke="none" stroke-width="1" fill="none" fill-rule="evenodd">
        <g id="03-Excise---Order-History---Order-Information-V0.2" transform="translate(-57.000000, -124.000000)" fill="#22AE5D" fill-rule="nonzero">
            <g id="Info-Header" transform="translate(0.000000, 62.000000)">
                <g id="Success" transform="translate(57.000000, 62.000000)">
                    <path d="M15.0020348,0 C6.72996232,0 0,6.72885786 0,14.9999217 C0,23.2709856 6.72996232,30 15.0020348,30 C23.2741073,30 30.0040696,23.2709856 30.0040696,14.9999217 C30.0040696,6.72885786 23.2742639,0 15.0020348,0 Z M23.616468,12.4663088 L14.1914525,21.8899967 C13.7907011,22.2906917 13.2579835,22.5112304 12.691296,22.5112304 C12.1246084,22.5112304 11.5918909,22.2906917 11.1911394,21.8899967 L6.38760165,17.0871355 C5.98685024,16.6864405 5.76612389,16.153798 5.76612389,15.5871903 C5.76612389,15.0204261 5.98685024,14.4877835 6.38760165,14.0870885 C6.78819651,13.6863936 7.32091409,13.4656983 7.88775816,13.4656983 C8.45444569,13.4656983 8.98731982,13.6863936 9.38791468,14.0872451 L12.6911394,17.389848 L20.6158419,9.4662618 C21.0165933,9.06556684 21.5493108,8.8450281 22.1159984,8.8450281 C22.6826859,8.8450281 23.2154035,9.06556684 23.6161549,9.4662618 C24.4436439,10.2936343 24.4436439,11.6392493 23.616468,12.4663088 Z" id="SuccessTick"></path>
                </g>
            </g>
        </g>
    </g>
</svg>